<mxfile host="app.diagrams.net" modified="2022-05-16T04:21:36.172Z" agent="5.0 (Windows NT 10.0; Win64; x64) AppleWebKit/537.36 (KHTML, like Gecko) Chrome/101.0.4951.64 Safari/537.36 Edg/101.0.1210.47" etag="LbT2DOiaaCDqqEl2xydP" version="18.0.4" type="github">
  <diagram id="RqBa9nVkit30a7J5M0dk" name="Page-1">
    <mxGraphModel dx="1550" dy="835" grid="0" gridSize="10" guides="1" tooltips="1" connect="1" arrows="1" fold="1" page="0" pageScale="1" pageWidth="1200" pageHeight="1920" math="0" shadow="0">
      <root>
        <mxCell id="0" />
        <mxCell id="1" parent="0" />
        <mxCell id="QWCoNGlsIecfvtiFzba_-1" value="&lt;font style=&quot;font-size: 21px;&quot;&gt;Secure Monitor&lt;/font&gt;" style="rounded=0;whiteSpace=wrap;html=1;" vertex="1" parent="1">
          <mxGeometry x="379" y="529" width="510" height="86" as="geometry" />
        </mxCell>
        <mxCell id="QWCoNGlsIecfvtiFzba_-2" value="Hypervisor" style="rounded=0;whiteSpace=wrap;html=1;fontSize=21;" vertex="1" parent="1">
          <mxGeometry x="379" y="436" width="202" height="60" as="geometry" />
        </mxCell>
        <mxCell id="QWCoNGlsIecfvtiFzba_-5" value="" style="endArrow=none;dashed=1;html=1;rounded=0;fontSize=21;" edge="1" parent="1">
          <mxGeometry width="50" height="50" relative="1" as="geometry">
            <mxPoint x="634" y="515" as="sourcePoint" />
            <mxPoint x="634" y="77" as="targetPoint" />
          </mxGeometry>
        </mxCell>
        <mxCell id="QWCoNGlsIecfvtiFzba_-6" value="SPM" style="rounded=0;whiteSpace=wrap;html=1;fontSize=21;" vertex="1" parent="1">
          <mxGeometry x="687" y="436" width="202" height="60" as="geometry" />
        </mxCell>
        <mxCell id="QWCoNGlsIecfvtiFzba_-8" value="OS" style="rounded=0;whiteSpace=wrap;html=1;fontSize=21;" vertex="1" parent="1">
          <mxGeometry x="379" y="324" width="202" height="60" as="geometry" />
        </mxCell>
        <mxCell id="QWCoNGlsIecfvtiFzba_-9" value="TOS" style="rounded=0;whiteSpace=wrap;html=1;fontSize=21;" vertex="1" parent="1">
          <mxGeometry x="687" y="324" width="202" height="60" as="geometry" />
        </mxCell>
        <mxCell id="QWCoNGlsIecfvtiFzba_-10" value="TA" style="rounded=0;whiteSpace=wrap;html=1;fontSize=21;" vertex="1" parent="1">
          <mxGeometry x="687" y="212" width="70" height="60" as="geometry" />
        </mxCell>
        <mxCell id="QWCoNGlsIecfvtiFzba_-11" value="TA" style="rounded=0;whiteSpace=wrap;html=1;fontSize=21;" vertex="1" parent="1">
          <mxGeometry x="819" y="212" width="70" height="60" as="geometry" />
        </mxCell>
        <mxCell id="QWCoNGlsIecfvtiFzba_-13" value="&lt;font style=&quot;font-size: 19px;&quot;&gt;Application&lt;/font&gt;" style="rounded=0;whiteSpace=wrap;html=1;fontSize=21;" vertex="1" parent="1">
          <mxGeometry x="379" y="212" width="123" height="60" as="geometry" />
        </mxCell>
        <mxCell id="QWCoNGlsIecfvtiFzba_-14" value="" style="endArrow=none;dashed=1;html=1;rounded=0;fontSize=19;" edge="1" parent="1">
          <mxGeometry width="50" height="50" relative="1" as="geometry">
            <mxPoint x="380" y="515" as="sourcePoint" />
            <mxPoint x="634" y="515" as="targetPoint" />
          </mxGeometry>
        </mxCell>
        <mxCell id="QWCoNGlsIecfvtiFzba_-15" value="Normal" style="text;html=1;strokeColor=none;fillColor=none;align=center;verticalAlign=middle;whiteSpace=wrap;rounded=0;fontSize=19;" vertex="1" parent="1">
          <mxGeometry x="407" y="149" width="146" height="30" as="geometry" />
        </mxCell>
        <mxCell id="QWCoNGlsIecfvtiFzba_-16" value="Secure" style="text;html=1;strokeColor=none;fillColor=none;align=center;verticalAlign=middle;whiteSpace=wrap;rounded=0;fontSize=19;" vertex="1" parent="1">
          <mxGeometry x="715" y="149" width="146" height="30" as="geometry" />
        </mxCell>
      </root>
    </mxGraphModel>
  </diagram>
</mxfile>
